<svg width="659" height="656" viewBox="0 0 659 656" fill="none" xmlns="http://www.w3.org/2000/svg">
<path d="M104.446 352L188.5 401.5L86.5 465.347L109.5 479L210.5 414L305.5 479L210.5 538.954L232 551.717L328.5 490.5L425.441 551.717L452 536.023L354 479L452 414L548.5 479L571.605 465.347L472.5 401.5L553.577 352L527.5 336.591L452 386.5L400.5 352L381 368L425.441 401.5L328.5 459L232 401.5L294 368L267.5 352L210.5 386.5L130.405 336.591L104.446 352Z" fill="#BFFFFF"/>
<path d="M328.5 656V609L232 551.717L210.5 538.954L109.5 479L86.5 465.347L0 414V459L328.5 656Z" fill="#61423B"/>
<path d="M571.605 465.347L658.5 414L553.577 352L472.5 401.5L571.605 465.347Z" fill="#4EBF1A"/>
<path d="M354 479L452 536.023L548.5 479L452 414L354 479Z" fill="#4EBF1A"/>
<path d="M232 551.717L328.5 609L425.441 551.717L328.5 490.5L232 551.717Z" fill="#4EBF1A"/>
<path d="M210.5 414L109.5 479L210.5 538.954L305.5 479L210.5 414Z" fill="#4EBF1A"/>
<path d="M104.446 352L0 414L86.5 465.347L188.5 401.5L104.446 352Z" fill="#4EBF1A"/>
<path d="M527.5 336.591L328.5 219L130.405 336.591L210.5 386.5L267.5 352L294 368L232 401.5L328.5 459L425.441 401.5L381 368L400.5 352L452 386.5L527.5 336.591Z" fill="#4EBF1A"/>
<path d="M328.5 609V656L658.5 459V414L571.605 465.347L548.5 479L452 536.023L425.441 551.717L328.5 609Z" fill="#3A211C"/>
<path d="M330 498C384.667 412 489.496 224.413 486.5 161C483.5 97.5 471.181 85 468 78.5C456.5 55 403.6 0.9 330 0.5C274.8 0.5 234 28.5 220.5 42.5C205.667 52.6667 168 89.5 172 161C175.936 231.363 276 415 330 498Z" fill="#FF4A4A"/>
<path d="M407 158.5C407 201.302 372.302 236 329.5 236C286.698 236 252 201.302 252 158.5C252 115.698 286.698 81 329.5 81C372.302 81 407 115.698 407 158.5Z" fill="#BFFFFF"/>
</svg>
